<svg version="1.1" width="480" viewBox="0 0 480 480" xmlns="http://www.w3.org/2000/svg">
  <path d="M87.9,343.7H140V187.3H87.9V343.7z M374.6,200.4c0-14.3-11.7-26.1-26.1-26.1h-82.2l12.4-59.6l0.4-4.2c0-5.3-2.2-10.3-5.7-13.8l-13.8-13.7L173.8,169c-4.8,4.7-7.7,11.2-7.7,18.4v130.3c0,14.3,11.7,26.1,26.1,26.1h117.3c10.8,0,20.1-6.5,24-15.9l39.4-91.9c1.2-3,1.8-6.1,1.8-9.5v-24.9l-0.1-0.1L374.6,200.4z"/>
  <path d="M379.9,303.3v32h43.6c-35.8,68.9-106.6,112.6-184.3,113.6c-92.1-1.1-172.9-61.9-199.4-150.1L9.1,308C47,435,180.7,507.2,307.7,469.3c55.6-16.6,103.3-52.8,134.3-101.9c3.3-6.3,5.1-6.1,5.1-13.2v50h32V303.3L379.9,303.3L379.9,303.3z"/>
  <path d="M100.3,177v-32H56.7C92.5,76.1,163.3,32.5,241,31.4c92.1,1.1,172.9,61.9,199.4,150.1l30.7-9.1C433.2,45.4,299.4-26.8,172.4,11.1C116.8,27.7,69.1,63.9,38.1,113c-3.3,6.3-5.1,6.1-5.1,13.2v-50H1V177L100.3,177L100.3,177z"/>
</svg>