<svg xmlns="http://www.w3.org/2000/svg" viewBox="0 0 24 36">
  <polygon points="11.84 7.66 3.1 7.6 7.39 34.72 8.32 34.72 16.91 34.72 17.84 34.72 22.14 7.6 11.84 7.66" fill="#ff9100" fill-rule="evenodd"/>
  <polygon points="11.84 7.66 3.1 7.6 7.39 34.72 8.32 34.72 14.72 34.72 15.66 34.72 19.95 7.6 11.84 7.66" fill="#fd0" fill-rule="evenodd"/>
  <polygon points="0.6 7.6 23.15 7.6 23.15 5.1 0.6 5.1 0.6 7.6" fill="#fff" fill-rule="evenodd"/>
  <polygon points="0.6 7.6 23.15 7.6 23.15 5.1 0.6 5.1 0.6 7.6" fill="none" stroke="#000" stroke-width="1.17"/>
  <polygon points="18.78 1.04 13.4 1.04 10.2 1.04 4.81 1.04 3.17 4.79 10.2 4.79 13.4 4.79 20.42 4.79 18.78 1.04" fill="#fff" fill-rule="evenodd"/>
  <polygon points="18.78 1.04 13.4 1.04 10.2 1.04 4.81 1.04 3.17 4.79 10.2 4.79 13.4 4.79 20.42 4.79 18.78 1.04" fill="none" stroke="#050505" stroke-width="1.17"/>
  <polygon points="11.84 7.66 1.53 7.6 5.83 34.72 6.76 34.72 16.91 34.72 17.84 34.72 22.14 7.6 11.84 7.66" fill="none" stroke="#000" stroke-width="1.17"/>
  <polygon points="22.45 15.26 12.17 15.26 11.43 15.26 1.15 15.26 3.07 26.04 11.8 25.95 20.52 26.04 22.45 15.26" fill="#fff" fill-rule="evenodd"/>
  <polygon points="22.45 15.26 12.17 15.26 11.43 15.26 1.15 15.26 3.07 26.04 11.8 25.95 20.52 26.04 22.45 15.26" fill="none" stroke="#000" stroke-width="1.17"/>
</svg>