<svg xmlns="http://www.w3.org/2000/svg" viewBox="0 0 468.78 468.78">
  <circle cx="234.39" cy="234.39" r="234.39" fill="#0067fc" opacity="0.2"/>
  <path d="M234.39,0C363.84,0,468.78,104.94,468.78,234.39S363.84,468.78,234.39,468.78" fill="#0067fc" opacity="0.2"/>
  <path d="M310.08,88.14a53.92,53.92,0,0,0-40.66-18.45H148.67a10.65,10.65,0,0,0-10.49,8.77L95.51,313.12a10.67,10.67,0,0,0,8.6,12.4,10.91,10.91,0,0,0,1.9.17h64a10.66,10.66,0,0,0,10.34-8.09l19.33-77.24H234a84.76,84.76,0,0,0,83.52-72.54l5.33-36.46h0A54.32,54.32,0,0,0,310.08,88.14Z" fill="#283593"/>
  <path d="M349,146.81A50.29,50.29,0,0,0,311,129.6H198.41a10,10,0,0,0-9.79,8.18L148.83,356.64a10,10,0,0,0,8,11.56,10.5,10.5,0,0,0,1.77.16h59.69a10,10,0,0,0,9.65-7.54l18-72.05h32a79,79,0,0,0,77.89-67.65l5-34h0A50.68,50.68,0,0,0,349,146.81Z" fill="#0067fc" opacity="0.7"/>
</svg>